<svg xmlns="http://www.w3.org/2000/svg" xmlns:xlink="http://www.w3.org/1999/xlink" width="500" zoomAndPan="magnify" viewBox="0 0 375 374.999991" height="500" preserveAspectRatio="xMidYMid meet" version="1.0"><defs><g/><clipPath id="a22539eba6"><path d="M 67.414062 56.304688 L 296 56.304688 L 296 145.554688 L 67.414062 145.554688 Z M 67.414062 56.304688 " clip-rule="nonzero"/></clipPath></defs><rect x="-37.5" width="450" fill="#ffffff" y="-37.499999" height="449.999989" fill-opacity="1"/><rect x="-37.5" width="450" fill="#ffffff" y="-37.499999" height="449.999989" fill-opacity="1"/><g clip-path="url(#a22539eba6)"><path fill="#000000" d="M 294.195312 83.976562 L 187.195312 57.238281 C 183.605469 56.34375 179.863281 56.34375 176.347656 57.238281 L 69.273438 83.976562 C 67.402344 84.421875 67.402344 87.113281 69.273438 87.5625 L 121.875 100.707031 C 151.65625 91.894531 183.679688 91.445312 214.132812 96.820312 C 183.304688 93.386719 150.832031 96.074219 121.875 107.203125 L 121.875 122.214844 C 121.875 123.484375 123.070312 124.304688 124.269531 123.933594 C 141.328125 118.703125 160.933594 115.644531 181.734375 115.644531 C 202.535156 115.644531 222.136719 118.703125 239.273438 123.933594 C 240.46875 124.304688 241.59375 123.484375 241.59375 122.214844 L 241.59375 100.707031 L 264.5625 94.953125 L 264.5625 135.136719 L 264.1875 135.136719 C 263.367188 135.136719 262.691406 135.808594 262.691406 136.628906 L 262.691406 144.023438 C 262.691406 144.84375 263.367188 145.515625 264.1875 145.515625 L 268.679688 145.515625 C 269.5 145.515625 270.175781 144.84375 270.175781 144.023438 L 270.175781 136.628906 C 270.175781 135.808594 269.5 135.136719 268.679688 135.136719 L 268.304688 135.136719 L 268.304688 94.058594 L 294.195312 87.5625 C 296.136719 87.113281 296.136719 84.425781 294.195312 83.976562 Z M 294.195312 83.976562 " fill-opacity="1" fill-rule="nonzero"/></g><g fill="#000000" fill-opacity="1"><g transform="translate(35.306937, 203.999987)"><g><path d="M 1.75 0 L 1.75 -9.3125 L 6.09375 -9.3125 L 6.09375 -39.6875 L 1.75 -39.6875 L 1.75 -48.9375 L 23.09375 -48.9375 C 28.738281 -48.9375 33.546875 -47.882812 37.515625 -45.78125 C 41.484375 -43.675781 44.503906 -40.828125 46.578125 -37.234375 C 48.660156 -33.640625 49.703125 -29.601562 49.703125 -25.125 C 49.703125 -17.144531 47.378906 -10.960938 42.734375 -6.578125 C 38.085938 -2.191406 31.445312 0 22.8125 0 Z M 20.4375 -9.3125 L 23.09375 -9.3125 C 25.570312 -9.351562 27.582031 -10.085938 29.125 -11.515625 C 30.664062 -12.941406 31.796875 -14.84375 32.515625 -17.21875 C 33.234375 -19.601562 33.59375 -22.238281 33.59375 -25.125 C 33.59375 -27.644531 33.234375 -30.015625 32.515625 -32.234375 C 31.796875 -34.453125 30.664062 -36.25 29.125 -37.625 C 27.582031 -39 25.570312 -39.6875 23.09375 -39.6875 L 20.4375 -39.6875 Z M 20.4375 -9.3125 "/></g></g></g><g fill="#000000" fill-opacity="1"><g transform="translate(85.704185, 203.999987)"><g><path d="M 20.296875 0.90625 C 17.773438 0.90625 15.347656 0.519531 13.015625 -0.25 C 10.679688 -1.019531 8.582031 -2.171875 6.71875 -3.703125 C 4.851562 -5.242188 3.382812 -7.179688 2.3125 -9.515625 C 1.238281 -11.847656 0.722656 -14.554688 0.765625 -17.640625 C 0.765625 -20.578125 1.3125 -23.164062 2.40625 -25.40625 C 3.507812 -27.644531 4.96875 -29.546875 6.78125 -31.109375 C 8.601562 -32.671875 10.644531 -33.847656 12.90625 -34.640625 C 15.175781 -35.441406 17.523438 -35.84375 19.953125 -35.84375 C 23.640625 -35.789062 26.941406 -35.039062 29.859375 -33.59375 C 32.773438 -32.15625 35.082031 -30.066406 36.78125 -27.328125 C 38.488281 -24.597656 39.363281 -21.273438 39.40625 -17.359375 C 39.457031 -13.484375 38.628906 -10.179688 36.921875 -7.453125 C 35.222656 -4.722656 32.914062 -2.644531 30 -1.21875 C 27.082031 0.195312 23.847656 0.90625 20.296875 0.90625 Z M 20.296875 -8.046875 C 21.796875 -8.046875 22.960938 -8.941406 23.796875 -10.734375 C 24.640625 -12.535156 25.0625 -14.742188 25.0625 -17.359375 C 25.0625 -19.972656 24.617188 -22.175781 23.734375 -23.96875 C 22.847656 -25.769531 21.585938 -26.691406 19.953125 -26.734375 C 18.597656 -26.734375 17.453125 -25.847656 16.515625 -24.078125 C 15.585938 -22.304688 15.125 -20.132812 15.125 -17.5625 C 15.125 -14.71875 15.625 -12.421875 16.625 -10.671875 C 17.625 -8.921875 18.847656 -8.046875 20.296875 -8.046875 Z M 20.296875 -8.046875 "/></g></g></g><g fill="#000000" fill-opacity="1"><g transform="translate(125.881985, 203.999987)"><g><path d="M 21.5625 0 L 1.75 0 L 1.75 -9.171875 L 4.828125 -9.171875 L 4.828125 -25.90625 L 1.8125 -25.90625 L 1.8125 -35 L 14.984375 -35 L 17.078125 -30.515625 C 17.679688 -31.640625 18.359375 -32.675781 19.109375 -33.625 C 19.859375 -34.582031 20.921875 -35.34375 22.296875 -35.90625 C 23.671875 -36.46875 25.550781 -36.75 27.9375 -36.75 L 27.9375 -24.15625 C 24.800781 -24.15625 22.367188 -23.628906 20.640625 -22.578125 C 18.921875 -21.523438 18.0625 -19.457031 18.0625 -16.375 L 18.0625 -9.171875 L 21.5625 -9.171875 Z M 21.5625 0 "/></g></g></g><g fill="#000000" fill-opacity="1"><g transform="translate(154.860404, 203.999987)"><g><path d="M 22.546875 0 L 1.75 0 L 1.75 -9.171875 L 4.6875 -9.171875 L 4.6875 -25.6875 L 1.75 -25.6875 L 1.75 -34.9375 L 14.984375 -34.9375 L 16.515625 -30.796875 C 16.890625 -31.265625 17.484375 -31.894531 18.296875 -32.6875 C 19.117188 -33.476562 20.125 -34.210938 21.3125 -34.890625 C 22.5 -35.566406 23.816406 -35.90625 25.265625 -35.90625 C 27.648438 -35.90625 29.53125 -35.601562 30.90625 -35 C 32.28125 -34.394531 33.328125 -33.691406 34.046875 -32.890625 C 34.773438 -32.097656 35.328125 -31.425781 35.703125 -30.875 C 36.773438 -32.082031 38.148438 -33.222656 39.828125 -34.296875 C 41.503906 -35.367188 43.554688 -35.90625 45.984375 -35.90625 C 48.835938 -35.90625 51.125 -35.4375 52.84375 -34.5 C 54.570312 -33.570312 55.890625 -32.3125 56.796875 -30.71875 C 57.710938 -29.132812 58.320312 -27.335938 58.625 -25.328125 C 58.925781 -23.328125 59.078125 -21.253906 59.078125 -19.109375 L 59.078125 -9.453125 L 62.515625 -9.453125 L 62.515625 0 L 44.734375 0 L 44.734375 -17.15625 C 44.734375 -18.269531 44.742188 -19.503906 44.765625 -20.859375 C 44.785156 -22.210938 44.617188 -23.378906 44.265625 -24.359375 C 43.921875 -25.335938 43.1875 -25.828125 42.0625 -25.828125 C 40.570312 -25.828125 39.582031 -25.347656 39.09375 -24.390625 C 38.601562 -23.429688 38.359375 -22.207031 38.359375 -20.71875 L 38.359375 -9.375 L 42.5625 -9.375 L 42.5625 0 L 24.4375 0 L 24.4375 -17.84375 C 24.4375 -20.695312 24.296875 -22.738281 24.015625 -23.96875 C 23.734375 -25.207031 22.890625 -25.828125 21.484375 -25.828125 C 19.390625 -25.828125 18.34375 -24.425781 18.34375 -21.625 L 18.34375 -9.171875 L 22.546875 -9.171875 Z M 22.546875 0 "/></g></g></g><g fill="#000000" fill-opacity="1"><g transform="translate(218.416926, 203.999987)"><g><path d="M 1.75 0 L 1.75 -9.09375 L 5.8125 -9.09375 L 5.8125 -39.90625 L 1.75 -39.90625 L 1.75 -48.9375 L 27.859375 -48.9375 C 33.691406 -48.9375 38.007812 -47.894531 40.8125 -45.8125 C 43.613281 -43.738281 45.015625 -40.785156 45.015625 -36.953125 C 45.015625 -34.015625 44.519531 -31.738281 43.53125 -30.125 C 42.550781 -28.519531 40.757812 -27.179688 38.15625 -26.109375 C 40.675781 -25.410156 42.84375 -24.101562 44.65625 -22.1875 C 46.476562 -20.269531 47.390625 -17.609375 47.390625 -14.203125 C 47.390625 -9.265625 45.90625 -5.660156 42.9375 -3.390625 C 39.976562 -1.128906 35.113281 0 28.34375 0 Z M 20.296875 -39.6875 L 20.296875 -29.1875 L 24.5625 -29.1875 C 26.4375 -29.1875 27.695312 -29.664062 28.34375 -30.625 C 29 -31.582031 29.328125 -32.898438 29.328125 -34.578125 C 29.328125 -36.210938 28.894531 -37.472656 28.03125 -38.359375 C 27.164062 -39.242188 26.054688 -39.6875 24.703125 -39.6875 Z M 20.296875 -9.09375 L 25.90625 -9.09375 C 27.394531 -9.09375 28.707031 -9.628906 29.84375 -10.703125 C 30.988281 -11.773438 31.5625 -13.25 31.5625 -15.125 C 31.5625 -16.894531 31.0625 -18.363281 30.0625 -19.53125 C 29.0625 -20.695312 27.601562 -21.28125 25.6875 -21.28125 L 20.296875 -21.28125 Z M 20.296875 -9.09375 "/></g></g></g><g fill="#000000" fill-opacity="1"><g transform="translate(266.50431, 203.999987)"><g><path d="M 3.703125 -45.21875 C 3.703125 -46.289062 3.992188 -47.375 4.578125 -48.46875 C 5.160156 -49.570312 6.007812 -50.492188 7.125 -51.234375 C 8.25 -51.984375 9.628906 -52.359375 11.265625 -52.359375 C 12.898438 -52.359375 14.289062 -51.984375 15.4375 -51.234375 C 16.582031 -50.492188 17.457031 -49.570312 18.0625 -48.46875 C 18.664062 -47.375 18.96875 -46.289062 18.96875 -45.21875 C 18.96875 -43.300781 18.300781 -41.644531 16.96875 -40.25 C 15.644531 -38.851562 13.742188 -38.15625 11.265625 -38.15625 C 9.816406 -38.15625 8.519531 -38.515625 7.375 -39.234375 C 6.238281 -39.953125 5.34375 -40.847656 4.6875 -41.921875 C 4.03125 -43.003906 3.703125 -44.101562 3.703125 -45.21875 Z M 21.34375 0 L 1.75 0 L 1.75 -9.171875 L 4.6875 -9.171875 L 4.6875 -25.90625 L 1.75 -25.90625 L 1.75 -35 L 17.984375 -35 L 17.984375 -9.171875 L 21.34375 -9.171875 Z M 21.34375 0 "/></g></g></g><g fill="#000000" fill-opacity="1"><g transform="translate(289.603063, 203.999987)"><g><path d="M 1.75 -21 L 1.75 -35 L 36.40625 -35 L 36.40625 -25.96875 L 19.734375 -9.171875 L 27.09375 -9.171875 L 27.09375 -13.9375 L 36.953125 -13.9375 L 36.953125 0 L 1.75 0 L 1.75 -9.171875 L 18.625 -25.96875 L 10.84375 -25.96875 L 10.84375 -21 Z M 1.75 -21 "/></g></g></g><g fill="#000000" fill-opacity="1"><g transform="translate(96.004671, 256.688494)"><g><path d="M 0.953125 0 L 0.953125 -10.90625 L 5.3125 -10.90625 C 6.519531 -10.90625 7.425781 -10.644531 8.03125 -10.125 C 8.632812 -9.601562 8.9375 -8.929688 8.9375 -8.109375 C 8.9375 -7.472656 8.75 -6.953125 8.375 -6.546875 C 8 -6.148438 7.53125 -5.890625 6.96875 -5.765625 L 6.96875 -5.65625 C 7.382812 -5.644531 7.773438 -5.53125 8.140625 -5.3125 C 8.503906 -5.09375 8.796875 -4.789062 9.015625 -4.40625 C 9.242188 -4.019531 9.359375 -3.554688 9.359375 -3.015625 C 9.359375 -2.429688 9.210938 -1.910156 8.921875 -1.453125 C 8.640625 -1.003906 8.21875 -0.648438 7.65625 -0.390625 C 7.101562 -0.128906 6.421875 0 5.609375 0 Z M 3.25 -1.890625 L 5.140625 -1.890625 C 5.785156 -1.890625 6.253906 -2.007812 6.546875 -2.25 C 6.835938 -2.5 6.984375 -2.832031 6.984375 -3.25 C 6.984375 -3.695312 6.820312 -4.0625 6.5 -4.34375 C 6.175781 -4.632812 5.738281 -4.78125 5.1875 -4.78125 L 3.25 -4.78125 Z M 3.25 -6.34375 L 4.96875 -6.34375 C 5.4375 -6.34375 5.828125 -6.460938 6.140625 -6.703125 C 6.453125 -6.953125 6.609375 -7.296875 6.609375 -7.734375 C 6.609375 -8.128906 6.46875 -8.445312 6.1875 -8.6875 C 5.914062 -8.925781 5.519531 -9.046875 5 -9.046875 L 3.25 -9.046875 Z M 3.25 -6.34375 "/></g></g></g><g fill="#000000" fill-opacity="1"><g transform="translate(105.992634, 256.688494)"><g><path d="M 4.640625 0.15625 C 3.796875 0.15625 3.070312 -0.015625 2.46875 -0.359375 C 1.863281 -0.703125 1.394531 -1.1875 1.0625 -1.8125 C 0.738281 -2.445312 0.578125 -3.191406 0.578125 -4.046875 C 0.578125 -4.890625 0.738281 -5.628906 1.0625 -6.265625 C 1.394531 -6.898438 1.859375 -7.394531 2.453125 -7.75 C 3.046875 -8.101562 3.742188 -8.28125 4.546875 -8.28125 C 5.265625 -8.28125 5.910156 -8.128906 6.484375 -7.828125 C 7.066406 -7.523438 7.53125 -7.066406 7.875 -6.453125 C 8.21875 -5.835938 8.390625 -5.066406 8.390625 -4.140625 L 8.390625 -3.515625 L 2.8125 -3.515625 L 2.8125 -3.5 C 2.8125 -2.894531 2.976562 -2.414062 3.3125 -2.0625 C 3.644531 -1.707031 4.097656 -1.53125 4.671875 -1.53125 C 5.046875 -1.53125 5.375 -1.609375 5.65625 -1.765625 C 5.9375 -1.929688 6.132812 -2.171875 6.25 -2.484375 L 8.34375 -2.34375 C 8.1875 -1.582031 7.78125 -0.972656 7.125 -0.515625 C 6.476562 -0.0664062 5.648438 0.15625 4.640625 0.15625 Z M 2.8125 -4.921875 L 6.25 -4.921875 C 6.25 -5.398438 6.09375 -5.796875 5.78125 -6.109375 C 5.476562 -6.429688 5.078125 -6.59375 4.578125 -6.59375 C 4.078125 -6.59375 3.664062 -6.425781 3.34375 -6.09375 C 3.019531 -5.769531 2.84375 -5.378906 2.8125 -4.921875 Z M 2.8125 -4.921875 "/></g></g></g><g fill="#000000" fill-opacity="1"><g transform="translate(115.032455, 256.688494)"><g><path d="M 2.234375 3.1875 C 1.898438 3.1875 1.617188 3.15625 1.390625 3.09375 C 1.171875 3.039062 0.992188 2.988281 0.859375 2.9375 L 1.375 1.171875 C 1.769531 1.296875 2.101562 1.328125 2.375 1.265625 C 2.65625 1.210938 2.878906 1 3.046875 0.625 L 3.1875 0.234375 L 0.25 -8.1875 L 2.640625 -8.1875 L 4.34375 -2.171875 L 4.421875 -2.171875 L 6.125 -8.1875 L 8.53125 -8.1875 L 5.34375 0.9375 C 5.101562 1.59375 4.726562 2.128906 4.21875 2.546875 C 3.71875 2.972656 3.054688 3.1875 2.234375 3.1875 Z M 2.234375 3.1875 "/></g></g></g><g fill="#000000" fill-opacity="1"><g transform="translate(123.896495, 256.688494)"><g><path d="M 4.609375 0.15625 C 3.773438 0.15625 3.054688 -0.0195312 2.453125 -0.375 C 1.859375 -0.726562 1.394531 -1.21875 1.0625 -1.84375 C 0.738281 -2.476562 0.578125 -3.21875 0.578125 -4.0625 C 0.578125 -4.90625 0.738281 -5.644531 1.0625 -6.28125 C 1.394531 -6.914062 1.859375 -7.40625 2.453125 -7.75 C 3.054688 -8.101562 3.773438 -8.28125 4.609375 -8.28125 C 5.429688 -8.28125 6.144531 -8.101562 6.75 -7.75 C 7.351562 -7.40625 7.816406 -6.914062 8.140625 -6.28125 C 8.460938 -5.644531 8.625 -4.90625 8.625 -4.0625 C 8.625 -3.21875 8.460938 -2.476562 8.140625 -1.84375 C 7.816406 -1.21875 7.351562 -0.726562 6.75 -0.375 C 6.144531 -0.0195312 5.429688 0.15625 4.609375 0.15625 Z M 4.609375 -1.59375 C 5.171875 -1.59375 5.597656 -1.828125 5.890625 -2.296875 C 6.179688 -2.765625 6.328125 -3.359375 6.328125 -4.078125 C 6.328125 -4.785156 6.179688 -5.375 5.890625 -5.84375 C 5.597656 -6.320312 5.171875 -6.5625 4.609375 -6.5625 C 4.035156 -6.5625 3.601562 -6.320312 3.3125 -5.84375 C 3.019531 -5.375 2.875 -4.785156 2.875 -4.078125 C 2.875 -3.359375 3.019531 -2.765625 3.3125 -2.296875 C 3.601562 -1.828125 4.035156 -1.59375 4.609375 -1.59375 Z M 4.609375 -1.59375 "/></g></g></g><g fill="#000000" fill-opacity="1"><g transform="translate(133.176011, 256.688494)"><g><path d="M 3.171875 -4.734375 L 3.171875 0 L 0.90625 0 L 0.90625 -8.1875 L 3.0625 -8.1875 L 3.0625 -6.734375 L 3.171875 -6.734375 C 3.347656 -7.210938 3.648438 -7.585938 4.078125 -7.859375 C 4.503906 -8.140625 5.019531 -8.28125 5.625 -8.28125 C 6.476562 -8.28125 7.160156 -8.003906 7.671875 -7.453125 C 8.191406 -6.910156 8.453125 -6.160156 8.453125 -5.203125 L 8.453125 0 L 6.171875 0 L 6.171875 -4.8125 C 6.179688 -5.3125 6.054688 -5.703125 5.796875 -5.984375 C 5.535156 -6.265625 5.175781 -6.40625 4.71875 -6.40625 C 4.257812 -6.40625 3.890625 -6.257812 3.609375 -5.96875 C 3.328125 -5.675781 3.179688 -5.265625 3.171875 -4.734375 Z M 3.171875 -4.734375 "/></g></g></g><g fill="#000000" fill-opacity="1"><g transform="translate(142.578036, 256.688494)"><g><path d="M 3.921875 0.140625 C 3.296875 0.140625 2.734375 -0.0195312 2.234375 -0.34375 C 1.734375 -0.664062 1.335938 -1.140625 1.046875 -1.765625 C 0.753906 -2.398438 0.609375 -3.171875 0.609375 -4.078125 C 0.609375 -5.015625 0.757812 -5.796875 1.0625 -6.421875 C 1.363281 -7.046875 1.765625 -7.507812 2.265625 -7.8125 C 2.765625 -8.125 3.316406 -8.28125 3.921875 -8.28125 C 4.378906 -8.28125 4.757812 -8.203125 5.0625 -8.046875 C 5.375 -7.898438 5.625 -7.710938 5.8125 -7.484375 C 6 -7.253906 6.144531 -7.03125 6.25 -6.8125 L 6.3125 -6.8125 L 6.3125 -10.90625 L 8.578125 -10.90625 L 8.578125 0 L 6.34375 0 L 6.34375 -1.3125 L 6.25 -1.3125 C 6.144531 -1.082031 5.992188 -0.851562 5.796875 -0.625 C 5.597656 -0.40625 5.34375 -0.222656 5.03125 -0.078125 C 4.726562 0.0664062 4.359375 0.140625 3.921875 0.140625 Z M 4.640625 -1.671875 C 5.179688 -1.671875 5.601562 -1.890625 5.90625 -2.328125 C 6.207031 -2.773438 6.359375 -3.363281 6.359375 -4.09375 C 6.359375 -4.820312 6.207031 -5.398438 5.90625 -5.828125 C 5.613281 -6.265625 5.191406 -6.484375 4.640625 -6.484375 C 4.078125 -6.484375 3.648438 -6.257812 3.359375 -5.8125 C 3.066406 -5.375 2.921875 -4.800781 2.921875 -4.09375 C 2.921875 -3.375 3.066406 -2.789062 3.359375 -2.34375 C 3.648438 -1.894531 4.078125 -1.671875 4.640625 -1.671875 Z M 4.640625 -1.671875 "/></g></g></g><g fill="#000000" fill-opacity="1"><g transform="translate(152.182483, 256.688494)"><g/></g></g><g fill="#000000" fill-opacity="1"><g transform="translate(155.735811, 256.688494)"><g><path d="M 2.234375 3.1875 C 1.898438 3.1875 1.617188 3.15625 1.390625 3.09375 C 1.171875 3.039062 0.992188 2.988281 0.859375 2.9375 L 1.375 1.171875 C 1.769531 1.296875 2.101562 1.328125 2.375 1.265625 C 2.65625 1.210938 2.878906 1 3.046875 0.625 L 3.1875 0.234375 L 0.25 -8.1875 L 2.640625 -8.1875 L 4.34375 -2.171875 L 4.421875 -2.171875 L 6.125 -8.1875 L 8.53125 -8.1875 L 5.34375 0.9375 C 5.101562 1.59375 4.726562 2.128906 4.21875 2.546875 C 3.71875 2.972656 3.054688 3.1875 2.234375 3.1875 Z M 2.234375 3.1875 "/></g></g></g><g fill="#000000" fill-opacity="1"><g transform="translate(164.599849, 256.688494)"><g><path d="M 4.609375 0.15625 C 3.773438 0.15625 3.054688 -0.0195312 2.453125 -0.375 C 1.859375 -0.726562 1.394531 -1.21875 1.0625 -1.84375 C 0.738281 -2.476562 0.578125 -3.21875 0.578125 -4.0625 C 0.578125 -4.90625 0.738281 -5.644531 1.0625 -6.28125 C 1.394531 -6.914062 1.859375 -7.40625 2.453125 -7.75 C 3.054688 -8.101562 3.773438 -8.28125 4.609375 -8.28125 C 5.429688 -8.28125 6.144531 -8.101562 6.75 -7.75 C 7.351562 -7.40625 7.816406 -6.914062 8.140625 -6.28125 C 8.460938 -5.644531 8.625 -4.90625 8.625 -4.0625 C 8.625 -3.21875 8.460938 -2.476562 8.140625 -1.84375 C 7.816406 -1.21875 7.351562 -0.726562 6.75 -0.375 C 6.144531 -0.0195312 5.429688 0.15625 4.609375 0.15625 Z M 4.609375 -1.59375 C 5.171875 -1.59375 5.597656 -1.828125 5.890625 -2.296875 C 6.179688 -2.765625 6.328125 -3.359375 6.328125 -4.078125 C 6.328125 -4.785156 6.179688 -5.375 5.890625 -5.84375 C 5.597656 -6.320312 5.171875 -6.5625 4.609375 -6.5625 C 4.035156 -6.5625 3.601562 -6.320312 3.3125 -5.84375 C 3.019531 -5.375 2.875 -4.785156 2.875 -4.078125 C 2.875 -3.359375 3.019531 -2.765625 3.3125 -2.296875 C 3.601562 -1.828125 4.035156 -1.59375 4.609375 -1.59375 Z M 4.609375 -1.59375 "/></g></g></g><g fill="#000000" fill-opacity="1"><g transform="translate(173.879364, 256.688494)"><g><path d="M 6.15625 -3.484375 L 6.15625 -8.1875 L 8.421875 -8.1875 L 8.421875 0 L 6.25 0 L 6.25 -1.484375 L 6.15625 -1.484375 C 5.96875 -1.003906 5.660156 -0.617188 5.234375 -0.328125 C 4.804688 -0.0351562 4.285156 0.109375 3.671875 0.109375 C 2.847656 0.109375 2.179688 -0.164062 1.671875 -0.71875 C 1.160156 -1.269531 0.90625 -2.019531 0.90625 -2.96875 L 0.90625 -8.1875 L 3.171875 -8.1875 L 3.171875 -3.375 C 3.179688 -2.894531 3.3125 -2.515625 3.5625 -2.234375 C 3.820312 -1.953125 4.164062 -1.8125 4.59375 -1.8125 C 5 -1.8125 5.359375 -1.953125 5.671875 -2.234375 C 5.992188 -2.515625 6.15625 -2.929688 6.15625 -3.484375 Z M 6.15625 -3.484375 "/></g></g></g><g fill="#000000" fill-opacity="1"><g transform="translate(183.281389, 256.688494)"><g><path d="M 0.90625 0 L 0.90625 -8.1875 L 3.109375 -8.1875 L 3.109375 -6.75 L 3.1875 -6.75 C 3.34375 -7.257812 3.59375 -7.644531 3.9375 -7.90625 C 4.289062 -8.164062 4.695312 -8.296875 5.15625 -8.296875 C 5.375 -8.296875 5.578125 -8.269531 5.765625 -8.21875 C 5.953125 -8.164062 6.125 -8.09375 6.28125 -8 L 5.59375 -6.125 C 5.488281 -6.175781 5.375 -6.21875 5.25 -6.25 C 5.125 -6.289062 4.984375 -6.3125 4.828125 -6.3125 C 4.367188 -6.3125 3.976562 -6.15625 3.65625 -5.84375 C 3.34375 -5.53125 3.179688 -5.125 3.171875 -4.625 L 3.171875 0 Z M 0.90625 0 "/></g></g></g><g fill="#000000" fill-opacity="1"><g transform="translate(189.785701, 256.688494)"><g/></g></g><g fill="#000000" fill-opacity="1"><g transform="translate(193.339034, 256.688494)"><g><path d="M 4.609375 0.15625 C 3.765625 0.15625 3.039062 -0.0195312 2.4375 -0.375 C 1.84375 -0.726562 1.382812 -1.222656 1.0625 -1.859375 C 0.738281 -2.492188 0.578125 -3.226562 0.578125 -4.0625 C 0.578125 -4.894531 0.738281 -5.628906 1.0625 -6.265625 C 1.382812 -6.898438 1.84375 -7.394531 2.4375 -7.75 C 3.039062 -8.101562 3.757812 -8.28125 4.59375 -8.28125 C 5.300781 -8.28125 5.925781 -8.148438 6.46875 -7.890625 C 7.007812 -7.640625 7.429688 -7.28125 7.734375 -6.8125 C 8.046875 -6.34375 8.21875 -5.789062 8.25 -5.15625 L 6.109375 -5.15625 C 6.054688 -5.5625 5.898438 -5.890625 5.640625 -6.140625 C 5.378906 -6.390625 5.039062 -6.515625 4.625 -6.515625 C 4.101562 -6.515625 3.679688 -6.300781 3.359375 -5.875 C 3.035156 -5.457031 2.875 -4.863281 2.875 -4.09375 C 2.875 -3.3125 3.03125 -2.707031 3.34375 -2.28125 C 3.664062 -1.851562 4.09375 -1.640625 4.625 -1.640625 C 5.019531 -1.640625 5.347656 -1.753906 5.609375 -1.984375 C 5.878906 -2.222656 6.046875 -2.5625 6.109375 -3 L 8.25 -3 C 8.21875 -2.375 8.050781 -1.820312 7.75 -1.34375 C 7.445312 -0.875 7.023438 -0.503906 6.484375 -0.234375 C 5.953125 0.0234375 5.328125 0.15625 4.609375 0.15625 Z M 4.609375 0.15625 "/></g></g></g><g fill="#000000" fill-opacity="1"><g transform="translate(202.224375, 256.688494)"><g><path d="M 3.234375 0.15625 C 2.453125 0.15625 1.800781 -0.046875 1.28125 -0.453125 C 0.769531 -0.867188 0.515625 -1.476562 0.515625 -2.28125 C 0.515625 -2.894531 0.660156 -3.375 0.953125 -3.71875 C 1.242188 -4.070312 1.617188 -4.328125 2.078125 -4.484375 C 2.546875 -4.648438 3.050781 -4.757812 3.59375 -4.8125 C 4.300781 -4.875 4.804688 -4.941406 5.109375 -5.015625 C 5.421875 -5.097656 5.578125 -5.273438 5.578125 -5.546875 L 5.578125 -5.578125 C 5.578125 -5.910156 5.46875 -6.164062 5.25 -6.34375 C 5.039062 -6.53125 4.742188 -6.625 4.359375 -6.625 C 3.953125 -6.625 3.628906 -6.535156 3.390625 -6.359375 C 3.148438 -6.179688 2.988281 -5.957031 2.90625 -5.6875 L 0.8125 -5.859375 C 0.96875 -6.609375 1.351562 -7.195312 1.96875 -7.625 C 2.59375 -8.0625 3.394531 -8.28125 4.375 -8.28125 C 4.976562 -8.28125 5.546875 -8.1875 6.078125 -8 C 6.609375 -7.8125 7.035156 -7.515625 7.359375 -7.109375 C 7.679688 -6.703125 7.84375 -6.171875 7.84375 -5.515625 L 7.84375 0 L 5.6875 0 L 5.6875 -1.140625 L 5.625 -1.140625 C 5.425781 -0.753906 5.128906 -0.441406 4.734375 -0.203125 C 4.335938 0.0351562 3.835938 0.15625 3.234375 0.15625 Z M 3.890625 -1.40625 C 4.390625 -1.40625 4.796875 -1.550781 5.109375 -1.84375 C 5.429688 -2.132812 5.59375 -2.492188 5.59375 -2.921875 L 5.59375 -3.796875 C 5.5 -3.734375 5.359375 -3.675781 5.171875 -3.625 C 4.992188 -3.582031 4.796875 -3.546875 4.578125 -3.515625 C 4.367188 -3.484375 4.179688 -3.453125 4.015625 -3.421875 C 3.617188 -3.367188 3.296875 -3.257812 3.046875 -3.09375 C 2.804688 -2.925781 2.6875 -2.679688 2.6875 -2.359375 C 2.6875 -2.046875 2.796875 -1.804688 3.015625 -1.640625 C 3.242188 -1.484375 3.535156 -1.40625 3.890625 -1.40625 Z M 3.890625 -1.40625 "/></g></g></g><g fill="#000000" fill-opacity="1"><g transform="translate(211.003183, 256.688494)"><g><path d="M 0.90625 0 L 0.90625 -8.1875 L 3.0625 -8.1875 L 3.0625 -6.734375 L 3.171875 -6.734375 C 3.335938 -7.222656 3.617188 -7.601562 4.015625 -7.875 C 4.421875 -8.144531 4.894531 -8.28125 5.4375 -8.28125 C 6 -8.28125 6.476562 -8.140625 6.875 -7.859375 C 7.269531 -7.585938 7.535156 -7.210938 7.671875 -6.734375 L 7.75 -6.734375 C 7.914062 -7.203125 8.21875 -7.578125 8.65625 -7.859375 C 9.09375 -8.140625 9.613281 -8.28125 10.21875 -8.28125 C 10.976562 -8.28125 11.597656 -8.035156 12.078125 -7.546875 C 12.554688 -7.066406 12.796875 -6.382812 12.796875 -5.5 L 12.796875 0 L 10.53125 0 L 10.53125 -5.0625 C 10.53125 -5.507812 10.410156 -5.847656 10.171875 -6.078125 C 9.929688 -6.304688 9.628906 -6.421875 9.265625 -6.421875 C 8.847656 -6.421875 8.523438 -6.285156 8.296875 -6.015625 C 8.066406 -5.753906 7.953125 -5.414062 7.953125 -5 L 7.953125 0 L 5.75 0 L 5.75 -5.109375 C 5.75 -5.503906 5.632812 -5.820312 5.40625 -6.0625 C 5.175781 -6.300781 4.875 -6.421875 4.5 -6.421875 C 4.125 -6.421875 3.804688 -6.28125 3.546875 -6 C 3.296875 -5.726562 3.171875 -5.363281 3.171875 -4.90625 L 3.171875 0 Z M 0.90625 0 "/></g></g></g><g fill="#000000" fill-opacity="1"><g transform="translate(224.757127, 256.688494)"><g><path d="M 0.90625 3.0625 L 0.90625 -8.1875 L 3.140625 -8.1875 L 3.140625 -6.8125 L 3.25 -6.8125 C 3.351562 -7.03125 3.5 -7.253906 3.6875 -7.484375 C 3.875 -7.710938 4.117188 -7.898438 4.421875 -8.046875 C 4.734375 -8.203125 5.117188 -8.28125 5.578125 -8.28125 C 6.171875 -8.28125 6.71875 -8.125 7.21875 -7.8125 C 7.71875 -7.507812 8.117188 -7.046875 8.421875 -6.421875 C 8.734375 -5.796875 8.890625 -5.015625 8.890625 -4.078125 C 8.890625 -3.171875 8.738281 -2.398438 8.4375 -1.765625 C 8.144531 -1.140625 7.75 -0.664062 7.25 -0.34375 C 6.75 -0.0195312 6.1875 0.140625 5.5625 0.140625 C 5.125 0.140625 4.75 0.0664062 4.4375 -0.078125 C 4.132812 -0.222656 3.882812 -0.40625 3.6875 -0.625 C 3.5 -0.851562 3.351562 -1.082031 3.25 -1.3125 L 3.171875 -1.3125 L 3.171875 3.0625 Z M 3.125 -4.09375 C 3.125 -3.363281 3.273438 -2.773438 3.578125 -2.328125 C 3.878906 -1.890625 4.300781 -1.671875 4.84375 -1.671875 C 5.40625 -1.671875 5.832031 -1.894531 6.125 -2.34375 C 6.414062 -2.789062 6.5625 -3.375 6.5625 -4.09375 C 6.5625 -4.800781 6.414062 -5.375 6.125 -5.8125 C 5.832031 -6.257812 5.40625 -6.484375 4.84375 -6.484375 C 4.289062 -6.484375 3.863281 -6.265625 3.5625 -5.828125 C 3.269531 -5.398438 3.125 -4.820312 3.125 -4.09375 Z M 3.125 -4.09375 "/></g></g></g><g fill="#000000" fill-opacity="1"><g transform="translate(234.318962, 256.688494)"><g><path d="M 6.15625 -3.484375 L 6.15625 -8.1875 L 8.421875 -8.1875 L 8.421875 0 L 6.25 0 L 6.25 -1.484375 L 6.15625 -1.484375 C 5.96875 -1.003906 5.660156 -0.617188 5.234375 -0.328125 C 4.804688 -0.0351562 4.285156 0.109375 3.671875 0.109375 C 2.847656 0.109375 2.179688 -0.164062 1.671875 -0.71875 C 1.160156 -1.269531 0.90625 -2.019531 0.90625 -2.96875 L 0.90625 -8.1875 L 3.171875 -8.1875 L 3.171875 -3.375 C 3.179688 -2.894531 3.3125 -2.515625 3.5625 -2.234375 C 3.820312 -1.953125 4.164062 -1.8125 4.59375 -1.8125 C 5 -1.8125 5.359375 -1.953125 5.671875 -2.234375 C 5.992188 -2.515625 6.15625 -2.929688 6.15625 -3.484375 Z M 6.15625 -3.484375 "/></g></g></g><g fill="#000000" fill-opacity="1"><g transform="translate(243.720993, 256.688494)"><g><path d="M 7.71875 -5.84375 L 5.640625 -5.71875 C 5.578125 -5.976562 5.429688 -6.203125 5.203125 -6.390625 C 4.972656 -6.585938 4.660156 -6.6875 4.265625 -6.6875 C 3.910156 -6.6875 3.613281 -6.609375 3.375 -6.453125 C 3.132812 -6.304688 3.015625 -6.113281 3.015625 -5.875 C 3.015625 -5.675781 3.09375 -5.507812 3.25 -5.375 C 3.40625 -5.238281 3.671875 -5.128906 4.046875 -5.046875 L 5.53125 -4.75 C 7.101562 -4.425781 7.894531 -3.6875 7.90625 -2.53125 C 7.90625 -2 7.742188 -1.53125 7.421875 -1.125 C 7.109375 -0.71875 6.675781 -0.398438 6.125 -0.171875 C 5.582031 0.046875 4.957031 0.15625 4.25 0.15625 C 3.164062 0.15625 2.300781 -0.0664062 1.65625 -0.515625 C 1.019531 -0.972656 0.648438 -1.59375 0.546875 -2.375 L 2.78125 -2.484375 C 2.84375 -2.148438 3.003906 -1.894531 3.265625 -1.71875 C 3.523438 -1.550781 3.859375 -1.46875 4.265625 -1.46875 C 4.660156 -1.46875 4.976562 -1.546875 5.21875 -1.703125 C 5.46875 -1.859375 5.59375 -2.0625 5.59375 -2.3125 C 5.582031 -2.707031 5.234375 -2.976562 4.546875 -3.125 L 3.125 -3.40625 C 1.539062 -3.71875 0.753906 -4.5 0.765625 -5.75 C 0.753906 -6.53125 1.066406 -7.144531 1.703125 -7.59375 C 2.335938 -8.050781 3.179688 -8.28125 4.234375 -8.28125 C 5.265625 -8.28125 6.078125 -8.0625 6.671875 -7.625 C 7.265625 -7.195312 7.613281 -6.601562 7.71875 -5.84375 Z M 7.71875 -5.84375 "/></g></g></g><g fill="#000000" fill-opacity="1"><g transform="translate(252.222819, 256.688494)"><g/></g></g><g fill="#000000" fill-opacity="1"><g transform="translate(255.776153, 256.688494)"><g><path d="M 3.171875 -10.90625 L 3.171875 0 L 0.90625 0 L 0.90625 -10.90625 Z M 3.171875 -10.90625 "/></g></g></g><g fill="#000000" fill-opacity="1"><g transform="translate(259.931399, 256.688494)"><g><path d="M 0.90625 0 L 0.90625 -8.1875 L 3.171875 -8.1875 L 3.171875 0 Z M 2.046875 -9.234375 C 1.710938 -9.234375 1.421875 -9.34375 1.171875 -9.5625 C 0.929688 -9.789062 0.8125 -10.066406 0.8125 -10.390625 C 0.8125 -10.703125 0.929688 -10.96875 1.171875 -11.1875 C 1.421875 -11.414062 1.710938 -11.53125 2.046875 -11.53125 C 2.378906 -11.53125 2.664062 -11.414062 2.90625 -11.1875 C 3.15625 -10.96875 3.28125 -10.703125 3.28125 -10.390625 C 3.28125 -10.066406 3.15625 -9.789062 2.90625 -9.5625 C 2.664062 -9.34375 2.378906 -9.234375 2.046875 -9.234375 Z M 2.046875 -9.234375 "/></g></g></g><g fill="#000000" fill-opacity="1"><g transform="translate(264.086645, 256.688494)"><g><path d="M 5.375 -8.1875 L 5.375 -6.484375 L 3.75 -6.484375 L 3.75 0 L 1.484375 0 L 1.484375 -6.484375 L 0.328125 -6.484375 L 0.328125 -8.1875 L 1.484375 -8.1875 L 1.484375 -8.765625 C 1.484375 -9.660156 1.738281 -10.328125 2.25 -10.765625 C 2.757812 -11.203125 3.398438 -11.421875 4.171875 -11.421875 C 4.515625 -11.421875 4.832031 -11.394531 5.125 -11.34375 C 5.414062 -11.289062 5.632812 -11.242188 5.78125 -11.203125 L 5.375 -9.5 C 5.28125 -9.519531 5.164062 -9.539062 5.03125 -9.5625 C 4.90625 -9.59375 4.773438 -9.609375 4.640625 -9.609375 C 4.304688 -9.609375 4.070312 -9.53125 3.9375 -9.375 C 3.8125 -9.21875 3.75 -9.003906 3.75 -8.734375 L 3.75 -8.1875 Z M 5.375 -8.1875 "/></g></g></g><g fill="#000000" fill-opacity="1"><g transform="translate(270.021002, 256.688494)"><g><path d="M 4.640625 0.15625 C 3.796875 0.15625 3.070312 -0.015625 2.46875 -0.359375 C 1.863281 -0.703125 1.394531 -1.1875 1.0625 -1.8125 C 0.738281 -2.445312 0.578125 -3.191406 0.578125 -4.046875 C 0.578125 -4.890625 0.738281 -5.628906 1.0625 -6.265625 C 1.394531 -6.898438 1.859375 -7.394531 2.453125 -7.75 C 3.046875 -8.101562 3.742188 -8.28125 4.546875 -8.28125 C 5.265625 -8.28125 5.910156 -8.128906 6.484375 -7.828125 C 7.066406 -7.523438 7.53125 -7.066406 7.875 -6.453125 C 8.21875 -5.835938 8.390625 -5.066406 8.390625 -4.140625 L 8.390625 -3.515625 L 2.8125 -3.515625 L 2.8125 -3.5 C 2.8125 -2.894531 2.976562 -2.414062 3.3125 -2.0625 C 3.644531 -1.707031 4.097656 -1.53125 4.671875 -1.53125 C 5.046875 -1.53125 5.375 -1.609375 5.65625 -1.765625 C 5.9375 -1.929688 6.132812 -2.171875 6.25 -2.484375 L 8.34375 -2.34375 C 8.1875 -1.582031 7.78125 -0.972656 7.125 -0.515625 C 6.476562 -0.0664062 5.648438 0.15625 4.640625 0.15625 Z M 2.8125 -4.921875 L 6.25 -4.921875 C 6.25 -5.398438 6.09375 -5.796875 5.78125 -6.109375 C 5.476562 -6.429688 5.078125 -6.59375 4.578125 -6.59375 C 4.078125 -6.59375 3.664062 -6.425781 3.34375 -6.09375 C 3.019531 -5.769531 2.84375 -5.378906 2.8125 -4.921875 Z M 2.8125 -4.921875 "/></g></g></g></svg>