<svg xmlns="http://www.w3.org/2000/svg" xmlns:xlink="http://www.w3.org/1999/xlink" width="500" zoomAndPan="magnify" viewBox="0 0 375 374.999991" height="500" preserveAspectRatio="xMidYMid meet" version="1.0"><defs><g/><clipPath id="408fca0973"><path d="M 107.269531 95.472656 L 267.769531 95.472656 L 267.769531 142 L 107.269531 142 Z M 107.269531 95.472656 " clip-rule="nonzero"/></clipPath><clipPath id="20e7c0b5b1"><path d="M 136 218 L 239 218 L 239 221.472656 L 136 221.472656 Z M 136 218 " clip-rule="nonzero"/></clipPath><clipPath id="85afef891c"><path d="M 64.679688 164 L 84 164 L 84 180 L 64.679688 180 Z M 64.679688 164 " clip-rule="nonzero"/></clipPath><clipPath id="1cacd19ce4"><path d="M 92 105.796875 L 107 105.796875 L 107 126 L 92 126 Z M 92 105.796875 " clip-rule="nonzero"/></clipPath><clipPath id="fd8dbbb18c"><path d="M 291 164 L 310.203125 164 L 310.203125 180 L 291 180 Z M 291 164 " clip-rule="nonzero"/></clipPath><clipPath id="d5de6f5fd0"><path d="M 268 105.796875 L 283 105.796875 L 283 126 L 268 126 Z M 268 105.796875 " clip-rule="nonzero"/></clipPath></defs><rect x="-37.5" width="450" fill="#ffffff" y="-37.499999" height="449.999989" fill-opacity="1"/><rect x="-37.5" width="450" fill="#ffffff" y="-37.499999" height="449.999989" fill-opacity="1"/><path fill="#000000" d="M 223.597656 173.316406 L 223.597656 134.71875 L 187.519531 145.679688 L 152.296875 134.71875 L 152.296875 173.316406 C 152.296875 173.316406 157.015625 186.039062 187.519531 186.039062 C 218.023438 186.039062 223.597656 173.316406 223.597656 173.316406 Z M 223.597656 173.316406 " fill-opacity="1" fill-rule="nonzero"/><path fill="#000000" d="M 254.699219 137.09375 C 253.246094 137.09375 252.042969 138.15625 251.820312 139.542969 L 248.054688 161.375 C 248.054688 163.023438 251.03125 164.359375 254.699219 164.359375 C 258.367188 164.359375 261.339844 163.023438 261.339844 161.375 L 257.550781 139.402344 C 257.273438 138.082031 256.101562 137.09375 254.699219 137.09375 Z M 254.699219 137.09375 " fill-opacity="1" fill-rule="nonzero"/><path fill="#000000" d="M 257.613281 134.1875 C 257.613281 132.746094 256.558594 131.554688 255.179688 131.324219 L 254.84375 122.042969 L 254.550781 122.125 L 254.222656 131.324219 C 252.839844 131.554688 251.785156 132.746094 251.785156 134.1875 C 251.785156 135.792969 253.089844 137.09375 254.699219 137.09375 C 256.308594 137.09375 257.613281 135.792969 257.613281 134.1875 Z M 257.613281 134.1875 " fill-opacity="1" fill-rule="nonzero"/><g clip-path="url(#408fca0973)"><path fill="#000000" d="M 195.910156 120.308594 C 195.285156 121.257812 194.082031 122.175781 193.464844 122.605469 C 192.386719 123.355469 190.265625 124.617188 188.164062 124.617188 C 184.496094 124.617188 181.511719 122.191406 181.511719 119.214844 C 181.511719 116.234375 184.496094 113.8125 188.164062 113.8125 C 190.265625 113.8125 192.386719 115.074219 193.464844 115.824219 C 194.074219 116.25 195.261719 117.148438 195.894531 118.089844 L 254.699219 117.953125 L 254.84375 122.042969 L 267.769531 118.359375 L 187.519531 95.476562 L 107.269531 118.359375 L 187.519531 141.242188 L 254.550781 122.128906 L 254.699219 117.953125 Z M 195.910156 120.308594 " fill-opacity="1" fill-rule="nonzero"/></g><path fill="#000000" d="M 188.164062 116.0625 C 185.78125 116.0625 183.769531 117.503906 183.769531 119.210938 C 183.769531 120.921875 185.78125 122.363281 188.164062 122.363281 C 190.273438 122.363281 193.191406 120.179688 193.945312 119.210938 C 193.1875 118.246094 190.273438 116.0625 188.164062 116.0625 Z M 188.164062 116.0625 " fill-opacity="1" fill-rule="nonzero"/><g clip-path="url(#20e7c0b5b1)"><path fill="#000000" d="M 136.644531 218.167969 L 238.710938 218.167969 L 238.710938 221.46875 L 136.644531 221.46875 Z M 136.644531 218.167969 " fill-opacity="1" fill-rule="nonzero"/></g><path fill="#000000" d="M 228.707031 192.457031 L 148.1875 192.457031 L 136.644531 199.832031 L 136.644531 202.1875 C 136.644531 202.1875 232.136719 202.402344 233.921875 202.402344 C 235.710938 202.402344 236.28125 204.039062 236.28125 205.964844 C 236.28125 207.890625 234.210938 209.957031 233.210938 209.957031 L 136.644531 209.957031 L 136.644531 215.234375 L 238.710938 215.234375 C 238.710938 215.234375 238.710938 214.308594 238.710938 213.238281 C 238.15625 213.003906 237.175781 212.828125 236.425781 211.597656 C 238.285156 210.527344 239.785156 208.320312 239.785156 205.824219 C 239.785156 203.328125 238.996094 201.976562 238.140625 201.046875 C 237.285156 200.121094 228.707031 192.457031 228.707031 192.457031 Z M 228.707031 192.457031 " fill-opacity="1" fill-rule="nonzero"/><path fill="#000000" d="M 129.90625 211.410156 C 129.90625 211.410156 128.148438 216.65625 117.539062 217.789062 C 106.925781 218.921875 102.398438 216.65625 102.398438 216.65625 C 102.398438 216.65625 109.472656 211.136719 116.265625 210.851562 C 123.054688 210.566406 129.90625 211.410156 129.90625 211.410156 Z M 129.90625 211.410156 " fill-opacity="1" fill-rule="nonzero"/><path fill="#000000" d="M 129.90625 211.410156 C 129.90625 211.410156 130.707031 205.917969 121.917969 199.859375 C 113.128906 193.796875 108.070312 193.628906 108.070312 193.628906 C 108.070312 193.628906 110.972656 201.113281 118.046875 205.492188 C 123.828125 209.070312 129.90625 211.410156 129.90625 211.410156 Z M 129.90625 211.410156 " fill-opacity="1" fill-rule="nonzero"/><path fill="#000000" d="M 117.324219 207.519531 C 117.324219 207.519531 111.914062 205.078125 103.742188 205.078125 C 95.570312 205.078125 89.417969 209.328125 89.417969 209.328125 C 89.417969 209.328125 95.464844 211.769531 104.167969 211.769531 C 112.867188 211.769531 117.324219 207.519531 117.324219 207.519531 Z M 117.324219 207.519531 " fill-opacity="1" fill-rule="nonzero"/><path fill="#000000" d="M 107.324219 202.316406 C 107.324219 202.316406 106.882812 196.390625 102.984375 189.203125 C 99.085938 182.015625 92.417969 178.628906 92.417969 178.628906 C 92.417969 178.628906 93.160156 185.117188 97.3125 192.769531 C 101.464844 200.425781 107.324219 202.316406 107.324219 202.316406 Z M 107.324219 202.316406 " fill-opacity="1" fill-rule="nonzero"/><path fill="#000000" d="M 103.242188 201.578125 C 103.242188 201.578125 98.554688 197.933594 90.609375 196.019531 C 82.667969 194.101562 75.691406 196.789062 75.691406 196.789062 C 75.691406 196.789062 81 200.585938 89.460938 202.625 C 97.917969 204.664062 103.242188 201.578125 103.242188 201.578125 Z M 103.242188 201.578125 " fill-opacity="1" fill-rule="nonzero"/><path fill="#000000" d="M 96.210938 195.257812 C 96.210938 195.257812 93.292969 190.085938 86.703125 185.246094 C 80.117188 180.40625 72.648438 180.183594 72.648438 180.183594 C 72.648438 180.183594 76.078125 185.738281 83.09375 190.890625 C 90.105469 196.046875 96.210938 195.257812 96.210938 195.257812 Z M 96.210938 195.257812 " fill-opacity="1" fill-rule="nonzero"/><path fill="#000000" d="M 89.230469 184.617188 C 89.230469 184.617188 91.207031 179.320312 90.691406 171.554688 C 90.175781 163.789062 85.757812 158.210938 85.757812 158.210938 C 85.757812 158.210938 83.820312 164.113281 84.371094 172.382812 C 84.921875 180.648438 89.230469 184.617188 89.230469 184.617188 Z M 89.230469 184.617188 " fill-opacity="1" fill-rule="nonzero"/><g clip-path="url(#85afef891c)"><path fill="#000000" d="M 83.6875 179.597656 C 83.6875 179.597656 81.65625 174.882812 76.445312 170.121094 C 71.230469 165.355469 64.832031 164.476562 64.832031 164.476562 C 64.832031 164.476562 67.269531 169.566406 72.820312 174.636719 C 78.371094 179.710938 83.6875 179.597656 83.6875 179.597656 Z M 83.6875 179.597656 " fill-opacity="1" fill-rule="nonzero"/></g><path fill="#000000" d="M 80.542969 169.148438 C 80.542969 169.148438 80.292969 164.019531 77.082031 157.730469 C 73.867188 151.4375 68.183594 148.367188 68.183594 148.367188 C 68.183594 148.367188 68.6875 153.984375 72.105469 160.6875 C 75.527344 167.386719 80.542969 169.148438 80.542969 169.148438 Z M 80.542969 169.148438 " fill-opacity="1" fill-rule="nonzero"/><path fill="#000000" d="M 78.351562 153.847656 C 78.351562 153.847656 78.789062 148.730469 76.453125 142.0625 C 74.113281 135.394531 68.894531 131.589844 68.894531 131.589844 C 68.894531 131.589844 68.636719 137.222656 71.125 144.324219 C 73.617188 151.425781 78.351562 153.847656 78.351562 153.847656 Z M 78.351562 153.847656 " fill-opacity="1" fill-rule="nonzero"/><path fill="#000000" d="M 80.46875 143.761719 C 80.46875 143.761719 82.8125 139.195312 83.175781 132.140625 C 83.539062 125.082031 80.148438 119.578125 80.148438 119.578125 C 80.148438 119.578125 77.773438 124.691406 77.386719 132.207031 C 77 139.726562 80.46875 143.761719 80.46875 143.761719 Z M 80.46875 143.761719 " fill-opacity="1" fill-rule="nonzero"/><path fill="#000000" d="M 86.246094 131.628906 C 86.246094 131.628906 89.300781 127.503906 90.804688 120.601562 C 92.308594 113.695312 89.859375 107.714844 89.859375 107.714844 C 89.859375 107.714844 86.683594 112.375 85.085938 119.726562 C 83.484375 127.082031 86.246094 131.628906 86.246094 131.628906 Z M 86.246094 131.628906 " fill-opacity="1" fill-rule="nonzero"/><path fill="#000000" d="M 80.8125 162.570312 C 80.8125 162.570312 84.632812 159.144531 87.488281 152.679688 C 90.339844 146.21875 89.140625 139.863281 89.140625 139.863281 C 89.140625 139.863281 85.097656 143.792969 82.058594 150.675781 C 79.015625 157.558594 80.8125 162.570312 80.8125 162.570312 Z M 80.8125 162.570312 " fill-opacity="1" fill-rule="nonzero"/><path fill="#000000" d="M 85.035156 139.46875 C 85.035156 139.46875 89.914062 137.894531 95.152344 133.15625 C 100.386719 128.417969 101.875 122.125 101.875 122.125 C 101.875 122.125 96.582031 124.066406 91.007812 129.113281 C 85.429688 134.160156 85.035156 139.46875 85.035156 139.46875 Z M 85.035156 139.46875 " fill-opacity="1" fill-rule="nonzero"/><g clip-path="url(#1cacd19ce4)"><path fill="#000000" d="M 92.246094 125.332031 C 92.246094 125.332031 96.867188 123.097656 101.402344 117.683594 C 105.933594 112.269531 106.539062 105.832031 106.539062 105.832031 C 106.539062 105.832031 101.570312 108.484375 96.738281 114.25 C 91.914062 120.015625 92.246094 125.332031 92.246094 125.332031 Z M 92.246094 125.332031 " fill-opacity="1" fill-rule="nonzero"/></g><path fill="#000000" d="M 130.640625 214.730469 C 130.640625 221.839844 118.960938 229.574219 118.960938 225.796875 C 118.960938 222.019531 130.640625 217.25 130.640625 214.730469 Z M 130.640625 214.730469 " fill-opacity="1" fill-rule="nonzero"/><path fill="#000000" d="M 245.089844 211.410156 C 245.089844 211.410156 246.847656 216.65625 257.460938 217.789062 C 268.070312 218.921875 272.597656 216.65625 272.597656 216.65625 C 272.597656 216.65625 265.523438 211.136719 258.734375 210.851562 C 251.941406 210.566406 245.089844 211.410156 245.089844 211.410156 Z M 245.089844 211.410156 " fill-opacity="1" fill-rule="nonzero"/><path fill="#000000" d="M 245.089844 211.410156 C 245.089844 211.410156 244.292969 205.917969 253.078125 199.859375 C 261.867188 193.796875 266.925781 193.628906 266.925781 193.628906 C 266.925781 193.628906 264.023438 201.113281 256.949219 205.492188 C 251.171875 209.070312 245.089844 211.410156 245.089844 211.410156 Z M 245.089844 211.410156 " fill-opacity="1" fill-rule="nonzero"/><path fill="#000000" d="M 257.671875 207.519531 C 257.671875 207.519531 263.085938 205.078125 271.253906 205.078125 C 279.425781 205.078125 285.578125 209.328125 285.578125 209.328125 C 285.578125 209.328125 279.53125 211.769531 270.828125 211.769531 C 262.128906 211.769531 257.671875 207.519531 257.671875 207.519531 Z M 257.671875 207.519531 " fill-opacity="1" fill-rule="nonzero"/><path fill="#000000" d="M 267.675781 202.316406 C 267.675781 202.316406 268.113281 196.390625 272.015625 189.203125 C 275.914062 182.015625 282.582031 178.628906 282.582031 178.628906 C 282.582031 178.628906 281.839844 185.117188 277.683594 192.769531 C 273.53125 200.425781 267.675781 202.316406 267.675781 202.316406 Z M 267.675781 202.316406 " fill-opacity="1" fill-rule="nonzero"/><path fill="#000000" d="M 271.753906 201.578125 C 271.753906 201.578125 276.445312 197.933594 284.386719 196.019531 C 292.332031 194.101562 299.308594 196.789062 299.308594 196.789062 C 299.308594 196.789062 294 200.585938 285.539062 202.625 C 277.082031 204.664062 271.753906 201.578125 271.753906 201.578125 Z M 271.753906 201.578125 " fill-opacity="1" fill-rule="nonzero"/><path fill="#000000" d="M 278.785156 195.257812 C 278.785156 195.257812 281.707031 190.085938 288.292969 185.246094 C 294.878906 180.40625 302.351562 180.183594 302.351562 180.183594 C 302.351562 180.183594 298.917969 185.738281 291.90625 190.890625 C 284.890625 196.046875 278.785156 195.257812 278.785156 195.257812 Z M 278.785156 195.257812 " fill-opacity="1" fill-rule="nonzero"/><path fill="#000000" d="M 285.765625 184.617188 C 285.765625 184.617188 283.789062 179.320312 284.308594 171.554688 C 284.824219 163.789062 289.242188 158.210938 289.242188 158.210938 C 289.242188 158.210938 291.175781 164.113281 290.628906 172.382812 C 290.078125 180.648438 285.765625 184.617188 285.765625 184.617188 Z M 285.765625 184.617188 " fill-opacity="1" fill-rule="nonzero"/><g clip-path="url(#fd8dbbb18c)"><path fill="#000000" d="M 291.308594 179.597656 C 291.308594 179.597656 293.339844 174.882812 298.554688 170.121094 C 303.769531 165.355469 310.164062 164.476562 310.164062 164.476562 C 310.164062 164.476562 307.730469 169.566406 302.175781 174.636719 C 296.625 179.710938 291.308594 179.597656 291.308594 179.597656 Z M 291.308594 179.597656 " fill-opacity="1" fill-rule="nonzero"/></g><path fill="#000000" d="M 294.453125 169.148438 C 294.453125 169.148438 294.703125 164.019531 297.917969 157.730469 C 301.128906 151.4375 306.8125 148.367188 306.8125 148.367188 C 306.8125 148.367188 306.3125 153.984375 302.890625 160.6875 C 299.46875 167.386719 294.453125 169.148438 294.453125 169.148438 Z M 294.453125 169.148438 " fill-opacity="1" fill-rule="nonzero"/><path fill="#000000" d="M 296.648438 153.847656 C 296.648438 153.847656 296.207031 148.730469 298.542969 142.0625 C 300.882812 135.394531 306.101562 131.589844 306.101562 131.589844 C 306.101562 131.589844 306.359375 137.222656 303.871094 144.324219 C 301.382812 151.425781 296.648438 153.847656 296.648438 153.847656 Z M 296.648438 153.847656 " fill-opacity="1" fill-rule="nonzero"/><path fill="#000000" d="M 294.53125 143.761719 C 294.53125 143.761719 292.183594 139.195312 291.824219 132.140625 C 291.460938 125.082031 294.847656 119.578125 294.847656 119.578125 C 294.847656 119.578125 297.222656 124.691406 297.609375 132.207031 C 297.996094 139.726562 294.53125 143.761719 294.53125 143.761719 Z M 294.53125 143.761719 " fill-opacity="1" fill-rule="nonzero"/><path fill="#000000" d="M 288.75 131.628906 C 288.75 131.628906 285.695312 127.503906 284.191406 120.601562 C 282.6875 113.695312 285.140625 107.714844 285.140625 107.714844 C 285.140625 107.714844 288.3125 112.375 289.914062 119.726562 C 291.511719 127.082031 288.75 131.628906 288.75 131.628906 Z M 288.75 131.628906 " fill-opacity="1" fill-rule="nonzero"/><path fill="#000000" d="M 294.1875 162.570312 C 294.1875 162.570312 290.367188 159.144531 287.511719 152.679688 C 284.65625 146.21875 285.859375 139.863281 285.859375 139.863281 C 285.859375 139.863281 289.902344 143.792969 292.941406 150.675781 C 295.980469 157.558594 294.1875 162.570312 294.1875 162.570312 Z M 294.1875 162.570312 " fill-opacity="1" fill-rule="nonzero"/><path fill="#000000" d="M 289.964844 139.46875 C 289.964844 139.46875 285.082031 137.894531 279.84375 133.15625 C 274.609375 128.417969 273.125 122.125 273.125 122.125 C 273.125 122.125 278.414062 124.066406 283.988281 129.113281 C 289.566406 134.160156 289.964844 139.46875 289.964844 139.46875 Z M 289.964844 139.46875 " fill-opacity="1" fill-rule="nonzero"/><g clip-path="url(#d5de6f5fd0)"><path fill="#000000" d="M 282.75 125.332031 C 282.75 125.332031 278.128906 123.097656 273.597656 117.683594 C 269.0625 112.269531 268.457031 105.832031 268.457031 105.832031 C 268.457031 105.832031 273.429688 108.484375 278.257812 114.25 C 283.085938 120.015625 282.75 125.332031 282.75 125.332031 Z M 282.75 125.332031 " fill-opacity="1" fill-rule="nonzero"/></g><path fill="#000000" d="M 244.355469 214.730469 C 244.355469 221.839844 256.035156 229.574219 256.035156 225.796875 C 256.035156 222.019531 244.355469 217.25 244.355469 214.730469 Z M 244.355469 214.730469 " fill-opacity="1" fill-rule="nonzero"/><g fill="#000000" fill-opacity="1"><g transform="translate(116.502475, 262.025455)"><g><path d="M 14.4375 0.578125 C 12.019531 0.578125 9.925781 0.109375 8.15625 -0.828125 C 6.382812 -1.765625 5.019531 -3.101562 4.0625 -4.84375 C 3.101562 -6.59375 2.625 -8.675781 2.625 -11.09375 L 2.625 -26.953125 L 10.390625 -26.953125 L 10.390625 -11.59375 C 10.390625 -8.332031 11.738281 -6.703125 14.4375 -6.703125 C 17.132812 -6.703125 18.484375 -8.332031 18.484375 -11.59375 L 18.484375 -26.953125 L 26.21875 -26.953125 L 26.21875 -11.09375 C 26.21875 -8.675781 25.742188 -6.59375 24.796875 -4.84375 C 23.847656 -3.101562 22.492188 -1.765625 20.734375 -0.828125 C 18.972656 0.109375 16.875 0.578125 14.4375 0.578125 Z M 14.4375 0.578125 "/></g></g></g><g fill="#000000" fill-opacity="1"><g transform="translate(143.095915, 262.025455)"><g><path d="M 2.578125 0 L 2.578125 -20.359375 L 7.890625 -20.359375 L 8.65625 -18.28125 C 9.40625 -19.132812 10.359375 -19.789062 11.515625 -20.25 C 12.671875 -20.707031 13.925781 -20.9375 15.28125 -20.9375 C 17.90625 -20.9375 19.976562 -20.117188 21.5 -18.484375 C 23.03125 -16.859375 23.796875 -14.675781 23.796875 -11.9375 L 23.796875 0 L 16.40625 0 L 16.40625 -11.171875 C 16.40625 -12.367188 16.128906 -13.273438 15.578125 -13.890625 C 15.023438 -14.515625 14.257812 -14.828125 13.28125 -14.828125 C 12.257812 -14.828125 11.453125 -14.492188 10.859375 -13.828125 C 10.265625 -13.160156 9.96875 -12.207031 9.96875 -10.96875 L 9.96875 0 Z M 2.578125 0 "/></g></g></g><g fill="#000000" fill-opacity="1"><g transform="translate(166.802866, 262.025455)"><g><path d="M 2.578125 0 L 2.578125 -20.359375 L 9.96875 -20.359375 L 9.96875 0 Z M 1.84375 -27.328125 C 1.84375 -28.617188 2.257812 -29.65625 3.09375 -30.4375 C 3.925781 -31.21875 4.988281 -31.609375 6.28125 -31.609375 C 7.5625 -31.609375 8.617188 -31.21875 9.453125 -30.4375 C 10.285156 -29.65625 10.703125 -28.617188 10.703125 -27.328125 C 10.703125 -26.078125 10.285156 -25.046875 9.453125 -24.234375 C 8.617188 -23.421875 7.5625 -23.015625 6.28125 -23.015625 C 4.988281 -23.015625 3.925781 -23.421875 3.09375 -24.234375 C 2.257812 -25.046875 1.84375 -26.078125 1.84375 -27.328125 Z M 1.84375 -27.328125 "/></g></g></g><g fill="#000000" fill-opacity="1"><g transform="translate(177.078018, 262.025455)"><g><path d="M 2.578125 0 L 2.578125 -28.484375 L 9.96875 -28.484375 L 9.96875 -19.21875 C 11.4375 -20.363281 13.257812 -20.9375 15.4375 -20.9375 C 18.03125 -20.9375 20.070312 -20.128906 21.5625 -18.515625 C 23.050781 -16.898438 23.796875 -14.707031 23.796875 -11.9375 L 23.796875 0 L 16.40625 0 L 16.40625 -11.171875 C 16.40625 -12.367188 16.128906 -13.273438 15.578125 -13.890625 C 15.023438 -14.515625 14.257812 -14.828125 13.28125 -14.828125 C 12.257812 -14.828125 11.453125 -14.492188 10.859375 -13.828125 C 10.265625 -13.160156 9.96875 -12.207031 9.96875 -10.96875 L 9.96875 0 Z M 2.578125 0 "/></g></g></g><g fill="#000000" fill-opacity="1"><g transform="translate(200.784968, 262.025455)"><g><path d="M 2.578125 0 L 2.578125 -20.359375 L 9.96875 -20.359375 L 9.96875 0 Z M 1.84375 -27.328125 C 1.84375 -28.617188 2.257812 -29.65625 3.09375 -30.4375 C 3.925781 -31.21875 4.988281 -31.609375 6.28125 -31.609375 C 7.5625 -31.609375 8.617188 -31.21875 9.453125 -30.4375 C 10.285156 -29.65625 10.703125 -28.617188 10.703125 -27.328125 C 10.703125 -26.078125 10.285156 -25.046875 9.453125 -24.234375 C 8.617188 -23.421875 7.5625 -23.015625 6.28125 -23.015625 C 4.988281 -23.015625 3.925781 -23.421875 3.09375 -24.234375 C 2.257812 -25.046875 1.84375 -26.078125 1.84375 -27.328125 Z M 1.84375 -27.328125 "/></g></g></g><g fill="#000000" fill-opacity="1"><g transform="translate(211.06012, 262.025455)"><g><path d="M 8.390625 0 L 0.1875 -20.359375 L 8.28125 -20.359375 L 10.4375 -13.625 L 12.171875 -8.390625 L 13.90625 -13.625 L 16.09375 -20.359375 L 24.140625 -20.359375 L 15.90625 0 Z M 8.390625 0 "/></g></g></g><g fill="#000000" fill-opacity="1"><g transform="translate(233.112149, 262.025455)"><g><path d="M 12.703125 0.578125 C 10.441406 0.578125 8.445312 0.125 6.71875 -0.78125 C 4.988281 -1.695312 3.632812 -2.960938 2.65625 -4.578125 C 1.675781 -6.191406 1.1875 -8.066406 1.1875 -10.203125 C 1.1875 -12.328125 1.675781 -14.191406 2.65625 -15.796875 C 3.632812 -17.398438 4.992188 -18.65625 6.734375 -19.5625 C 8.484375 -20.476562 10.488281 -20.9375 12.75 -20.9375 C 15.1875 -20.9375 17.28125 -20.414062 19.03125 -19.375 C 20.789062 -18.34375 22.125 -16.882812 23.03125 -15 C 23.945312 -13.113281 24.34375 -10.898438 24.21875 -8.359375 L 8.515625 -8.359375 C 8.796875 -7.253906 9.332031 -6.414062 10.125 -5.84375 C 10.914062 -5.28125 11.828125 -5 12.859375 -5 C 13.648438 -5 14.378906 -5.140625 15.046875 -5.421875 C 15.710938 -5.710938 16.253906 -6.097656 16.671875 -6.578125 L 23.828125 -6.578125 C 22.929688 -4.328125 21.515625 -2.570312 19.578125 -1.3125 C 17.640625 -0.0507812 15.347656 0.578125 12.703125 0.578125 Z M 8.546875 -12.359375 L 17.171875 -12.359375 C 16.859375 -13.304688 16.335938 -14.050781 15.609375 -14.59375 C 14.878906 -15.132812 13.953125 -15.40625 12.828125 -15.40625 C 11.796875 -15.40625 10.898438 -15.140625 10.140625 -14.609375 C 9.390625 -14.085938 8.859375 -13.335938 8.546875 -12.359375 Z M 8.546875 -12.359375 "/></g></g></g><g fill="#000000" fill-opacity="1"><g transform="translate(92.122762, 278.15792)"><g><path d="M 0.765625 0 L 0.765625 -6.359375 L 3.609375 -6.359375 C 4.253906 -6.359375 4.765625 -6.203125 5.140625 -5.890625 C 5.523438 -5.578125 5.71875 -5.160156 5.71875 -4.640625 C 5.71875 -4.347656 5.648438 -4.082031 5.515625 -3.84375 C 5.378906 -3.601562 5.191406 -3.410156 4.953125 -3.265625 C 5.253906 -3.128906 5.488281 -2.929688 5.65625 -2.671875 C 5.820312 -2.410156 5.90625 -2.113281 5.90625 -1.78125 C 5.90625 -1.425781 5.8125 -1.113281 5.625 -0.84375 C 5.445312 -0.570312 5.195312 -0.363281 4.875 -0.21875 C 4.550781 -0.0703125 4.175781 0 3.75 0 Z M 2.1875 -1.140625 L 3.53125 -1.140625 C 3.8125 -1.140625 4.03125 -1.207031 4.1875 -1.34375 C 4.351562 -1.476562 4.4375 -1.664062 4.4375 -1.90625 C 4.4375 -2.144531 4.351562 -2.332031 4.1875 -2.46875 C 4.03125 -2.601562 3.8125 -2.671875 3.53125 -2.671875 L 2.1875 -2.671875 Z M 2.1875 -3.765625 L 3.390625 -3.765625 C 3.660156 -3.765625 3.867188 -3.828125 4.015625 -3.953125 C 4.171875 -4.085938 4.25 -4.269531 4.25 -4.5 C 4.25 -4.726562 4.171875 -4.898438 4.015625 -5.015625 C 3.867188 -5.140625 3.660156 -5.203125 3.390625 -5.203125 L 2.1875 -5.203125 Z M 2.1875 -3.765625 "/></g></g></g><g fill="#000000" fill-opacity="1"><g transform="translate(103.496756, 278.15792)"><g><path d="M 0.765625 0 L 0.765625 -6.359375 L 4.9375 -6.359375 L 4.9375 -5.140625 L 2.203125 -5.140625 L 2.203125 -3.828125 L 4.6875 -3.828125 L 4.6875 -2.609375 L 2.203125 -2.609375 L 2.203125 -1.21875 L 5.03125 -1.21875 L 5.03125 0 Z M 0.765625 0 "/></g></g></g><g fill="#000000" fill-opacity="1"><g transform="translate(114.116724, 278.15792)"><g><path d="M 2.421875 0 L 2.421875 -2.21875 L 0.078125 -6.359375 L 1.71875 -6.359375 L 2.515625 -4.890625 L 3.15625 -3.734375 L 3.78125 -4.890625 L 4.5625 -6.359375 L 6.203125 -6.359375 L 3.875 -2.25 L 3.875 0 Z M 2.421875 0 "/></g></g></g><g fill="#000000" fill-opacity="1"><g transform="translate(125.51798, 278.15792)"><g><path d="M 3.78125 0.125 C 3.113281 0.125 2.523438 -0.015625 2.015625 -0.296875 C 1.503906 -0.578125 1.101562 -0.960938 0.8125 -1.453125 C 0.53125 -1.953125 0.390625 -2.523438 0.390625 -3.171875 C 0.390625 -3.828125 0.53125 -4.398438 0.8125 -4.890625 C 1.101562 -5.390625 1.503906 -5.78125 2.015625 -6.0625 C 2.523438 -6.34375 3.113281 -6.484375 3.78125 -6.484375 C 4.445312 -6.484375 5.03125 -6.34375 5.53125 -6.0625 C 6.039062 -5.78125 6.441406 -5.390625 6.734375 -4.890625 C 7.023438 -4.398438 7.171875 -3.828125 7.171875 -3.171875 C 7.171875 -2.523438 7.023438 -1.953125 6.734375 -1.453125 C 6.441406 -0.960938 6.039062 -0.578125 5.53125 -0.296875 C 5.03125 -0.015625 4.445312 0.125 3.78125 0.125 Z M 1.859375 -3.171875 C 1.859375 -2.796875 1.9375 -2.460938 2.09375 -2.171875 C 2.257812 -1.878906 2.488281 -1.648438 2.78125 -1.484375 C 3.070312 -1.328125 3.40625 -1.25 3.78125 -1.25 C 4.15625 -1.25 4.484375 -1.328125 4.765625 -1.484375 C 5.054688 -1.648438 5.28125 -1.878906 5.4375 -2.171875 C 5.601562 -2.460938 5.6875 -2.796875 5.6875 -3.171875 C 5.6875 -3.554688 5.601562 -3.894531 5.4375 -4.1875 C 5.28125 -4.476562 5.054688 -4.703125 4.765625 -4.859375 C 4.484375 -5.023438 4.15625 -5.109375 3.78125 -5.109375 C 3.40625 -5.109375 3.070312 -5.023438 2.78125 -4.859375 C 2.488281 -4.703125 2.257812 -4.476562 2.09375 -4.1875 C 1.9375 -3.894531 1.859375 -3.554688 1.859375 -3.171875 Z M 1.859375 -3.171875 "/></g></g></g><g fill="#000000" fill-opacity="1"><g transform="translate(138.20017, 278.15792)"><g><path d="M 0.765625 0 L 0.765625 -6.359375 L 1.984375 -6.359375 L 4.796875 -2.484375 L 4.796875 -6.359375 L 6.234375 -6.359375 L 6.234375 0 L 5 0 L 2.203125 -3.890625 L 2.203125 0 Z M 0.765625 0 "/></g></g></g><g fill="#000000" fill-opacity="1"><g transform="translate(150.310028, 278.15792)"><g><path d="M 0.765625 0 L 0.765625 -6.359375 L 3.28125 -6.359375 C 3.945312 -6.359375 4.53125 -6.222656 5.03125 -5.953125 C 5.539062 -5.691406 5.929688 -5.320312 6.203125 -4.84375 C 6.484375 -4.363281 6.625 -3.804688 6.625 -3.171875 C 6.625 -2.535156 6.484375 -1.976562 6.203125 -1.5 C 5.929688 -1.03125 5.539062 -0.660156 5.03125 -0.390625 C 4.53125 -0.128906 3.945312 0 3.28125 0 Z M 2.203125 -1.328125 L 3.25 -1.328125 C 3.625 -1.328125 3.953125 -1.398438 4.234375 -1.546875 C 4.523438 -1.703125 4.75 -1.921875 4.90625 -2.203125 C 5.0625 -2.484375 5.140625 -2.804688 5.140625 -3.171875 C 5.140625 -3.546875 5.0625 -3.867188 4.90625 -4.140625 C 4.75 -4.421875 4.523438 -4.640625 4.234375 -4.796875 C 3.941406 -4.953125 3.609375 -5.03125 3.234375 -5.03125 L 2.203125 -5.03125 Z M 2.203125 -1.328125 "/></g></g></g><g fill="#000000" fill-opacity="1"><g transform="translate(162.438056, 278.15792)"><g/></g></g><g fill="#000000" fill-opacity="1"><g transform="translate(169.687604, 278.15792)"><g><path d="M 3.671875 0.125 C 3.035156 0.125 2.46875 -0.015625 1.96875 -0.296875 C 1.46875 -0.578125 1.078125 -0.960938 0.796875 -1.453125 C 0.523438 -1.953125 0.390625 -2.523438 0.390625 -3.171875 C 0.390625 -3.828125 0.523438 -4.398438 0.796875 -4.890625 C 1.078125 -5.390625 1.460938 -5.78125 1.953125 -6.0625 C 2.453125 -6.34375 3.023438 -6.484375 3.671875 -6.484375 C 4.203125 -6.484375 4.691406 -6.378906 5.140625 -6.171875 C 5.585938 -5.960938 5.960938 -5.671875 6.265625 -5.296875 C 6.578125 -4.921875 6.796875 -4.476562 6.921875 -3.96875 L 5.421875 -3.96875 C 5.304688 -4.320312 5.09375 -4.597656 4.78125 -4.796875 C 4.476562 -5.003906 4.125 -5.109375 3.71875 -5.109375 C 3.351562 -5.109375 3.03125 -5.023438 2.75 -4.859375 C 2.46875 -4.703125 2.25 -4.476562 2.09375 -4.1875 C 1.9375 -3.894531 1.859375 -3.554688 1.859375 -3.171875 C 1.859375 -2.796875 1.9375 -2.460938 2.09375 -2.171875 C 2.25 -1.878906 2.46875 -1.648438 2.75 -1.484375 C 3.03125 -1.328125 3.347656 -1.25 3.703125 -1.25 C 4.117188 -1.25 4.484375 -1.351562 4.796875 -1.5625 C 5.117188 -1.78125 5.34375 -2.070312 5.46875 -2.4375 L 6.96875 -2.4375 C 6.863281 -1.914062 6.65625 -1.460938 6.34375 -1.078125 C 6.03125 -0.703125 5.644531 -0.40625 5.1875 -0.1875 C 4.738281 0.0195312 4.234375 0.125 3.671875 0.125 Z M 3.671875 0.125 "/></g></g></g><g fill="#000000" fill-opacity="1"><g transform="translate(182.133593, 278.15792)"><g><path d="M 0.078125 0 L 2.609375 -6.359375 L 4.015625 -6.359375 L 6.546875 0 L 5 0 L 4.578125 -1.09375 L 2.046875 -1.09375 L 1.625 0 Z M 2.421875 -2.234375 L 4.21875 -2.234375 L 3.3125 -4.5625 Z M 2.421875 -2.234375 "/></g></g></g><g fill="#000000" fill-opacity="1"><g transform="translate(193.880057, 278.15792)"><g><path d="M 0.765625 0 L 0.765625 -6.359375 L 1.984375 -6.359375 L 4.25 -3.0625 L 6.5 -6.359375 L 7.71875 -6.359375 L 7.71875 0 L 6.28125 0 L 6.28125 -3.828125 L 4.734375 -1.578125 L 3.734375 -1.578125 L 2.203125 -3.828125 L 2.203125 0 Z M 0.765625 0 "/></g></g></g><g fill="#000000" fill-opacity="1"><g transform="translate(207.479808, 278.15792)"><g><path d="M 0.765625 0 L 0.765625 -6.359375 L 3.25 -6.359375 C 3.757812 -6.359375 4.203125 -6.265625 4.578125 -6.078125 C 4.953125 -5.890625 5.242188 -5.617188 5.453125 -5.265625 C 5.671875 -4.921875 5.78125 -4.519531 5.78125 -4.0625 C 5.78125 -3.601562 5.671875 -3.195312 5.453125 -2.84375 C 5.242188 -2.5 4.953125 -2.234375 4.578125 -2.046875 C 4.203125 -1.859375 3.757812 -1.765625 3.25 -1.765625 L 2.203125 -1.765625 L 2.203125 0 Z M 2.203125 -3.015625 L 3.125 -3.015625 C 3.5 -3.015625 3.785156 -3.101562 3.984375 -3.28125 C 4.191406 -3.457031 4.296875 -3.710938 4.296875 -4.046875 C 4.296875 -4.378906 4.191406 -4.632812 3.984375 -4.8125 C 3.785156 -5 3.5 -5.09375 3.125 -5.09375 L 2.203125 -5.09375 Z M 2.203125 -3.015625 "/></g></g></g><g fill="#000000" fill-opacity="1"><g transform="translate(218.635772, 278.15792)"><g><path d="M 3.359375 0.125 C 2.804688 0.125 2.332031 0.015625 1.9375 -0.203125 C 1.539062 -0.421875 1.234375 -0.734375 1.015625 -1.140625 C 0.804688 -1.554688 0.703125 -2.046875 0.703125 -2.609375 L 0.703125 -6.359375 L 2.140625 -6.359375 L 2.140625 -2.71875 C 2.140625 -1.738281 2.546875 -1.25 3.359375 -1.25 C 4.171875 -1.25 4.578125 -1.738281 4.578125 -2.71875 L 4.578125 -6.359375 L 6.015625 -6.359375 L 6.015625 -2.609375 C 6.015625 -2.046875 5.90625 -1.554688 5.6875 -1.140625 C 5.476562 -0.734375 5.175781 -0.421875 4.78125 -0.203125 C 4.382812 0.015625 3.910156 0.125 3.359375 0.125 Z M 3.359375 0.125 "/></g></g></g><g fill="#000000" fill-opacity="1"><g transform="translate(230.47309, 278.15792)"><g><path d="M 2.984375 0.125 C 2.441406 0.125 1.976562 0.0351562 1.59375 -0.140625 C 1.21875 -0.316406 0.925781 -0.566406 0.71875 -0.890625 C 0.507812 -1.210938 0.40625 -1.59375 0.40625 -2.03125 L 1.8125 -2.03125 C 1.8125 -1.726562 1.914062 -1.488281 2.125 -1.3125 C 2.332031 -1.144531 2.613281 -1.0625 2.96875 -1.0625 C 3.269531 -1.0625 3.507812 -1.117188 3.6875 -1.234375 C 3.863281 -1.359375 3.953125 -1.523438 3.953125 -1.734375 C 3.953125 -1.953125 3.84375 -2.128906 3.625 -2.265625 C 3.414062 -2.410156 3.085938 -2.53125 2.640625 -2.625 C 1.898438 -2.789062 1.347656 -3.03125 0.984375 -3.34375 C 0.628906 -3.664062 0.453125 -4.085938 0.453125 -4.609375 C 0.453125 -5.179688 0.660156 -5.632812 1.078125 -5.96875 C 1.503906 -6.3125 2.085938 -6.484375 2.828125 -6.484375 C 3.328125 -6.484375 3.757812 -6.394531 4.125 -6.21875 C 4.5 -6.050781 4.785156 -5.8125 4.984375 -5.5 C 5.191406 -5.1875 5.296875 -4.816406 5.296875 -4.390625 L 3.90625 -4.390625 C 3.90625 -4.671875 3.8125 -4.890625 3.625 -5.046875 C 3.4375 -5.210938 3.175781 -5.296875 2.84375 -5.296875 C 2.539062 -5.296875 2.300781 -5.238281 2.125 -5.125 C 1.945312 -5.007812 1.859375 -4.84375 1.859375 -4.625 C 1.859375 -4.4375 1.953125 -4.273438 2.140625 -4.140625 C 2.335938 -4.003906 2.679688 -3.878906 3.171875 -3.765625 C 3.960938 -3.578125 4.53125 -3.328125 4.875 -3.015625 C 5.226562 -2.703125 5.40625 -2.289062 5.40625 -1.78125 C 5.40625 -1.1875 5.1875 -0.71875 4.75 -0.375 C 4.320312 -0.0390625 3.734375 0.125 2.984375 0.125 Z M 2.984375 0.125 "/></g></g></g><g fill="#000000" fill-opacity="1"><g transform="translate(241.411016, 278.15792)"><g/></g></g><g fill="#000000" fill-opacity="1"><g transform="translate(248.660564, 278.15792)"><g><path d="M 0.765625 0 L 0.765625 -6.359375 L 2.203125 -6.359375 L 2.203125 -1.359375 L 4.984375 -1.359375 L 4.984375 0 Z M 0.765625 0 "/></g></g></g><g fill="#000000" fill-opacity="1"><g transform="translate(259.00799, 278.15792)"><g><path d="M 0.765625 0 L 0.765625 -6.359375 L 2.203125 -6.359375 L 2.203125 0 Z M 0.765625 0 "/></g></g></g><g fill="#000000" fill-opacity="1"><g transform="translate(267.093327, 278.15792)"><g><path d="M 0.765625 0 L 0.765625 -6.359375 L 4.75 -6.359375 L 4.75 -5.046875 L 2.203125 -5.046875 L 2.203125 -3.453125 L 4.515625 -3.453125 L 4.515625 -2.1875 L 2.203125 -2.1875 L 2.203125 0 Z M 0.765625 0 "/></g></g></g><g fill="#000000" fill-opacity="1"><g transform="translate(277.35899, 278.15792)"><g><path d="M 0.765625 0 L 0.765625 -6.359375 L 4.9375 -6.359375 L 4.9375 -5.140625 L 2.203125 -5.140625 L 2.203125 -3.828125 L 4.6875 -3.828125 L 4.6875 -2.609375 L 2.203125 -2.609375 L 2.203125 -1.21875 L 5.03125 -1.21875 L 5.03125 0 Z M 0.765625 0 "/></g></g></g></svg>